<svg width="131" height="82" viewBox="0 0 131 82" fill="none" xmlns="http://www.w3.org/2000/svg">
<g clip-path="url(#clip0_11946_186656)">
<path d="M65.5 80.8678C101.675 80.8678 131 74.4908 131 66.6243C131 58.7579 101.675 52.3809 65.5 52.3809C29.3253 52.3809 0 58.7579 0 66.6243C0 74.4908 29.3253 80.8678 65.5 80.8678Z" fill="#EEEEEE"/>
<path d="M112.578 27.4912L91.8105 4.0871C90.8137 2.49183 89.3584 1.52734 87.8253 1.52734H43.1747C41.6416 1.52734 40.1863 2.49183 39.1895 4.08507L18.4219 27.4932V46.2926H112.578V27.4912Z" stroke="#CCCCCC" stroke-width="1.46875"/>
<path d="M85.1766 33.9444C85.1766 30.6786 87.2112 27.9825 89.735 27.9805H112.578V64.8853C112.578 69.2052 109.876 72.7457 106.54 72.7457H24.4602C21.1237 72.7457 18.4219 69.2031 18.4219 64.8853V27.9805H41.265C43.7888 27.9805 45.8234 30.6725 45.8234 33.9383V33.9831C45.8234 37.2489 47.8805 39.886 50.4023 39.886H80.5977C83.1195 39.886 85.1766 37.2245 85.1766 33.9587V33.9444V33.9444Z" fill="#FAFAFA" stroke="#CCCCCC" stroke-width="1.46875"/>
</g>
<defs>
<clipPath id="clip0_11946_186656">
<rect width="131" height="82" fill="white"/>
</clipPath>
</defs>
</svg>
