<svg width="31" height="31" viewBox="0 0 31 31" fill="none" xmlns="http://www.w3.org/2000/svg">
    <rect x=".126" width="30.514" height="30.514" rx="15.257" fill="url(#fkyx6kcjwa)"/>
    <path d="M11.322 21.86c-.563 0-1.017.454-1.017 1.016v.352a1.017 1.017 0 0 0 2.034 0v-.349c0-.562-.454-1.02-1.017-1.02zM15.372 20.84c-.563 0-1.02.457-1.02 1.02v1.37a1.021 1.021 0 0 0 2.04 0v-1.37c0-.563-.457-1.02-1.02-1.02zM19.449 18.776c-.566.01-1.014.498-1.014 1.064v.603a1.03 1.03 0 1 0 2.061 0v-.637a1.025 1.025 0 0 0-1.047-1.03zM19.469 22.104c-.57 0-1.03.46-1.03 1.03v.081a1.027 1.027 0 0 0 1.03 1.03c.57 0 1.03-.46 1.03-1.03v-.081c0-.57-.46-1.03-1.03-1.03zM7.282 22.182c-.555 0-1.006.45-1.006 1.006v.054c0 .278.112.532.295.712.2.2.478.315.786.291.532-.037.935-.501.935-1.037v-.02c0-.556-.45-1.006-1.01-1.006z" fill="#fff"/>
    <path d="M24.088 12.198 15.85 5.162a.715.715 0 0 0-.932 0l-8.229 7.036a1.174 1.174 0 0 0-.413.898v7.432a1.007 1.007 0 0 0 2.013 0v-1.102c0-.278.112-.528.295-.711a1 1 0 0 1 .786-.292c.532.037.932.502.932 1.034v.545c0 .563.454 1.017 1.017 1.017.562 0 1.016-.454 1.016-1.017v-1.565a1.001 1.001 0 0 1 1.075-1.004c.532.038.935.502.935 1.034v.546a1.015 1.015 0 0 0 1.088 1.017c.542-.034.952-.506.952-1.051v-2.566a1.022 1.022 0 0 1 1.013-1.02c.566-.006 1.03.492 1.03 1.058v.508a1.027 1.027 0 0 0 1.03 1.03c.57 0 1.031-.46 1.031-1.03v-1.935a1.005 1.005 0 0 1 1.078-1.003c.532.037.935.501.935 1.034v1.077a.997.997 0 1 0 1.993 0v-3.036a1.156 1.156 0 0 0-.407-.898zM23.526 17.948a.995.995 0 0 0-1.014.997v1.227a.996.996 0 1 0 1.993 0v-1.193c-.003-.55-.434-1.02-.98-1.03zM23.505 21.935a.996.996 0 0 0-.996.996v.322c0 .274.112.522.291.705a1 1 0 0 0 .773.288c.529-.034.929-.495.929-1.024v-.291a.998.998 0 0 0-.997-.996z" fill="#fff"/>
    <defs>
        <linearGradient id="fkyx6kcjwa" x1=".126" y1="15.257" x2="30.64" y2="15.257" gradientUnits="userSpaceOnUse">
            <stop offset=".136" stop-color="#DB6F02"/>
            <stop offset="1" stop-color="#FFB825"/>
        </linearGradient>
    </defs>
</svg>
