<svg width="1012" height="141" viewBox="0 0 1012 141" fill="none" xmlns="http://www.w3.org/2000/svg">
<path d="M29.453 98.4648C26.2208 98.4648 23.6116 101.059 23.6116 104.272V106.286C23.6116 109.499 26.2402 112.093 29.453 112.093C32.6657 112.093 35.2944 109.48 35.2944 106.286V104.292C35.2944 101.078 32.6852 98.4648 29.453 98.4648Z" fill="url(#paint0_linear_5789_6170)"/>
<path d="M52.7214 92.6406C49.4892 92.6406 46.8605 95.254 46.8605 98.4674V106.288C46.8605 109.502 49.4892 112.115 52.7214 112.115C55.9536 112.115 58.5823 109.502 58.5823 106.288V98.4674C58.5823 95.254 55.9536 92.6406 52.7214 92.6406Z" fill="url(#paint1_linear_5789_6170)"/>
<path d="M76.1451 80.8447C72.8934 80.9028 70.3232 83.6903 70.3232 86.9231V90.3689C70.3232 93.621 72.9713 96.2537 76.2425 96.2537C79.5136 96.2537 82.1617 93.621 82.1617 90.3689V86.7295C82.1812 83.4387 79.4747 80.7866 76.1451 80.8447Z" fill="url(#paint2_linear_5789_6170)"/>
<path d="M76.2619 99.8574C72.9907 99.8574 70.3427 102.49 70.3427 105.742V106.207C70.3427 107.833 71.0047 109.304 72.0756 110.369C73.1465 111.434 74.6263 112.092 76.2619 112.092C79.5331 112.092 82.1812 109.459 82.1812 106.207V105.742C82.1812 102.49 79.5331 99.8574 76.2619 99.8574Z" fill="url(#paint3_linear_5789_6170)"/>
<path d="M6.24322 100.303C3.04994 100.303 0.460251 102.877 0.460251 106.052V106.362C0.460251 107.949 1.10282 109.401 2.15426 110.427C3.30307 111.569 4.8997 112.227 6.67158 112.092C9.72856 111.879 12.0456 109.227 12.0456 106.168V106.052C12.0456 102.877 9.45598 100.303 6.24322 100.303Z" fill="url(#paint4_linear_5789_6170)"/>
<path d="M102.801 43.2762L55.4665 3.08882C53.9283 1.77248 51.6502 1.77248 50.1119 3.08882L2.83576 43.2762C1.317 44.5538 0.460251 46.4316 0.460251 48.4061V90.8583C0.460251 94.0331 3.04994 96.6077 6.24322 96.6077C9.4365 96.6077 12.0262 94.0331 12.0262 90.8583V84.567C12.0262 82.9796 12.6687 81.5471 13.7202 80.5018C14.8495 79.379 16.4656 78.7015 18.2375 78.837C21.2945 79.0499 23.5921 81.702 23.5921 84.7412V87.8578C23.5921 91.0713 26.2012 93.6653 29.4334 93.6653C32.6657 93.6653 35.2748 91.0713 35.2748 87.8578V78.9144C35.2748 77.327 35.9174 75.8946 36.9688 74.8492C38.0982 73.7264 39.6948 73.0683 41.4472 73.1844C44.5042 73.3974 46.8213 76.0494 46.8213 79.0886V82.2053C46.8213 83.812 47.4833 85.2639 48.5347 86.3286C49.6835 87.4707 51.2997 88.1289 53.0715 88.0127C56.1869 87.8191 58.5429 85.1284 58.5429 82.0117V67.3576C58.5429 65.7509 59.205 64.2797 60.2564 63.2344C61.3079 62.189 62.7487 61.5308 64.3649 61.5308C67.6166 61.4921 70.2841 64.3378 70.2841 67.5706V70.4743C70.2841 72.1004 70.9461 73.5716 72.0171 74.6363C73.088 75.701 74.5678 76.3591 76.2034 76.3591C79.4745 76.3591 82.1226 73.7264 82.1226 70.4743V59.4208C82.1226 57.8335 82.7652 56.401 83.8166 55.3556C84.9459 54.2329 86.5426 53.5747 88.3145 53.6908C91.3715 53.9038 93.6885 56.5558 93.6885 59.595V65.7703C93.6885 67.3383 94.3311 68.7708 95.3631 69.7968C96.395 70.8227 97.8359 71.4616 99.4131 71.4616C102.567 71.4616 105.138 68.9256 105.138 65.7703V48.4254C105.177 46.4316 104.3 44.5538 102.801 43.2762Z" fill="url(#paint5_linear_5789_6170)"/>
<path d="M99.569 76.124C96.3563 76.0659 93.7471 78.6406 93.7471 81.8153V88.8229C93.7471 91.9589 96.2979 94.5142 99.4717 94.5142C102.645 94.5142 105.196 91.9783 105.196 88.8229V82.0089C105.177 78.8729 102.704 76.1821 99.569 76.124Z" fill="url(#paint6_linear_5789_6170)"/>
<path d="M99.4521 98.8906C96.2978 98.8906 93.7276 101.427 93.7276 104.582V106.421C93.7276 107.989 94.3701 109.402 95.4021 110.447C96.5314 111.551 98.1086 112.209 99.8415 112.093C102.879 111.899 105.177 109.267 105.177 106.247V104.582C105.177 101.446 102.606 98.8906 99.4521 98.8906Z" fill="url(#paint7_linear_5789_6170)"/>
<path d="M220.492 0.181641C218.034 0.181641 215.85 1.08661 214.211 2.89655C212.482 4.70649 211.662 6.7879 211.662 9.32182V46.6971H166.878V9.32182C166.878 6.7879 165.967 4.61596 164.238 2.80602C162.508 1.08658 160.324 0.181641 157.866 0.181641C155.408 0.181641 153.224 1.08661 151.585 2.89655C149.856 4.70649 149.036 6.7879 149.036 9.32182V102.443C149.036 104.977 149.856 107.059 151.585 108.869C153.315 110.678 155.499 111.583 157.866 111.583C160.324 111.583 162.417 110.678 164.238 108.959C165.967 107.24 166.878 104.977 166.878 102.443V65.0679H211.662V102.443C211.662 104.977 212.482 107.059 214.211 108.869C215.941 110.678 218.125 111.583 220.492 111.583C222.95 111.583 225.043 110.678 226.864 108.959C228.593 107.24 229.504 104.977 229.504 102.443V9.32182C229.504 6.7879 228.593 4.61596 226.864 2.80602C225.043 1.08658 222.95 0.181641 220.492 0.181641Z" fill="#231F20"/>
<path d="M316.16 35.3857C312.337 31.3134 307.695 28.1459 302.506 25.793C297.227 23.44 291.583 22.2637 285.666 22.2637C279.75 22.2637 274.106 23.44 268.827 25.793C263.638 28.1459 258.996 31.3134 255.173 35.3857C251.35 39.3676 248.255 44.1639 245.979 49.5032C243.703 54.9331 242.611 60.8153 242.611 66.9691C242.611 73.1229 243.794 79.0052 245.979 84.4351C248.255 89.7744 251.35 94.5707 255.173 98.5526C258.996 102.625 263.638 105.792 268.827 108.145C274.106 110.498 279.75 111.675 285.666 111.675C291.583 111.675 297.227 110.498 302.506 108.145C307.695 105.792 312.337 102.625 316.16 98.5526C319.983 94.5707 323.078 89.7744 325.354 84.4351C327.629 79.0052 328.722 73.1229 328.722 66.9691C328.722 60.8153 327.538 54.9331 325.354 49.5032C323.078 44.1639 319.983 39.3676 316.16 35.3857ZM310.699 66.8786C310.699 70.4985 310.061 73.9374 308.696 77.1048C307.33 80.2722 305.51 83.0776 303.234 85.4305C300.959 87.7834 298.228 89.5933 295.224 90.9508C292.22 92.3083 288.943 92.9418 285.575 92.9418C282.116 92.9418 278.839 92.3083 275.927 90.9508C272.923 89.5933 270.283 87.7834 268.007 85.4305C265.732 83.0776 263.911 80.2722 262.546 77.1048C261.271 73.9374 260.543 70.4985 260.543 66.8786C260.543 63.2587 261.18 59.7294 262.546 56.6525C263.911 53.4851 265.641 50.6797 267.916 48.3267C270.101 45.9738 272.832 44.1639 275.836 42.8064C278.839 41.449 282.116 40.8156 285.575 40.8156C289.034 40.8156 292.311 41.449 295.315 42.8064C298.319 44.1639 301.05 45.9738 303.234 48.3267C305.51 50.6797 307.331 53.4851 308.605 56.6525C310.061 59.8199 310.699 63.2587 310.699 66.8786Z" fill="#231F20"/>
<path d="M405.457 34.1194C402.089 30.59 398.084 27.7845 393.623 25.7936C389.072 23.8027 384.248 22.7168 379.059 22.7168C374.326 22.7168 369.683 23.6217 365.314 25.5222C363.13 26.4272 360.945 27.6035 359.033 28.961C358.942 28.78 358.942 28.599 358.851 28.5085C358.305 26.9701 357.395 25.7032 356.212 24.7077C354.846 23.5312 353.026 22.9882 350.75 22.9882C348.292 22.9882 346.108 23.8932 344.469 25.7031C342.74 27.5131 341.92 29.5945 341.92 32.1284V102.083C341.92 104.526 342.74 106.698 344.378 108.508C346.108 110.408 348.292 111.404 350.75 111.404C353.208 111.404 355.392 110.408 357.122 108.598C358.851 106.788 359.762 104.617 359.762 102.083V61.721C359.762 56.0197 361.582 51.3138 365.405 47.3319C369.319 43.2596 373.78 41.2687 379.059 41.2687C381.608 41.2687 384.066 41.8116 386.341 42.8071C388.617 43.8026 390.71 45.341 392.622 47.3319C394.534 49.3229 395.99 51.5853 396.991 53.9383C397.993 56.2912 398.448 58.9156 398.448 61.721V102.083C398.448 104.526 399.267 106.698 400.905 108.508C402.635 110.408 404.819 111.404 407.277 111.404C409.735 111.404 411.919 110.408 413.649 108.598C415.378 106.788 416.289 104.617 416.289 102.083V61.721C416.289 56.3817 415.288 51.3138 413.376 46.6079C411.464 41.8116 408.825 37.6488 405.457 34.1194Z" fill="#231F20"/>
<path d="M502.582 36.2861C498.759 32.3043 494.116 29.0463 489.019 26.6934C483.83 24.3404 478.187 23.1641 472.27 23.1641C466.353 23.1641 460.709 24.3404 455.521 26.6934C450.333 29.0463 445.781 32.2138 441.958 36.2861C438.135 40.268 435.04 45.0643 432.765 50.4036C430.489 55.8335 429.397 61.6252 429.397 67.6885C429.397 73.7518 430.489 79.6341 432.765 85.0639C435.04 90.4032 438.044 95.1997 441.958 99.1815C445.781 103.163 450.424 106.421 455.521 108.774C460.709 111.127 466.353 112.304 472.27 112.304C473.999 112.304 476.275 112.032 479.279 111.58C482.283 111.037 485.287 110.313 488.199 109.136C491.203 107.96 493.843 106.602 496.21 104.883C500.033 102.168 500.852 98.8195 500.852 96.5571C500.852 94.1137 500.033 91.8512 498.303 90.0413C496.574 88.1408 494.298 87.1454 491.841 87.1454C490.475 87.1454 489.019 87.5979 487.198 88.5933C486.106 89.2268 484.74 89.9508 483.102 90.7653C481.646 91.4893 480.007 92.1227 478.096 92.7562C476.366 93.2991 474.363 93.5707 472.179 93.5707C469.175 93.5707 466.353 93.0277 463.713 92.0323C461.074 91.0368 458.616 89.5888 456.522 87.6884C454.338 85.7879 452.517 83.5255 450.97 80.9916C450.242 79.7246 449.604 78.3671 449.058 76.9192H515.143V67.5076C515.143 61.4443 514.051 55.5619 511.775 50.2226C509.499 45.0642 506.405 40.268 502.582 36.2861ZM449.058 58.5484C449.604 57.1004 450.242 55.743 450.97 54.476C452.517 51.9421 454.338 49.6796 456.522 47.7792C458.616 45.8788 461.074 44.4308 463.804 43.3448C466.444 42.2589 469.266 41.7159 472.27 41.7159C475.274 41.7159 478.096 42.2589 480.735 43.2544C483.375 44.2498 485.833 45.6978 487.926 47.5983C490.111 49.4987 491.931 51.7611 493.388 54.3855C494.116 55.6525 494.753 57.1004 495.3 58.5484H449.058Z" fill="#231F20"/>
<path d="M598.068 24.7982C596.338 22.8978 594.154 21.9023 591.696 21.9023C588.055 21.9023 585.142 23.8028 583.595 27.3322L560.565 80.0918L537.444 27.2417C535.897 23.8028 532.984 21.9023 529.343 21.9023C526.885 21.9023 524.701 22.8978 522.971 24.7982C521.333 26.6081 520.514 28.6896 520.514 31.0425C520.514 31.9475 520.696 33.1239 522.789 38.4632C524.155 41.9021 525.884 46.065 527.978 50.9519C530.071 55.8387 532.438 61.178 534.896 66.7888C537.445 72.3996 539.811 77.8295 542.087 82.8973C544.362 88.0557 546.365 92.49 548.095 96.2908C549.278 98.9152 550.188 100.906 550.825 102.354C550.37 103.44 549.642 104.888 548.823 106.608C547.457 109.413 546.092 112.49 544.726 115.567C543.27 118.734 541.996 121.72 540.995 124.435C539.356 128.598 539.174 130.046 539.174 131.042C539.174 133.395 539.993 135.476 541.632 137.286C543.361 139.186 545.546 140.182 548.003 140.182C551.645 140.182 554.557 138.281 556.105 134.843L556.196 134.752C556.651 133.576 557.743 131.223 559.2 127.874L559.564 127.06C561.02 123.802 562.75 119.82 564.843 115.386C567.028 110.499 569.395 105.069 571.943 99.1868C574.583 93.214 577.223 87.2411 579.771 81.3588C582.502 75.205 585.051 69.3227 587.509 63.8024C589.966 58.1011 592.242 52.9428 594.063 48.5085C595.974 43.9836 597.522 40.2732 598.705 37.2868C600.525 32.6715 600.707 31.7665 600.707 30.8616C600.616 28.7801 599.706 26.6081 598.068 24.7982Z" fill="#231F20"/>
<path d="M688.73 52.4862C690.277 50.6763 691.461 48.5949 692.462 46.423C693.463 44.251 694.191 41.9886 694.737 39.6357C695.284 37.2828 695.557 34.9299 695.557 32.6675C695.557 28.5046 694.738 24.5227 693.19 20.8123C691.643 17.1019 689.549 13.8441 686.909 11.1291C684.27 8.41424 681.175 6.2423 677.534 4.61335C673.984 2.98441 670.069 2.16992 666.064 2.16992H618.64V104.16C618.64 105.97 619.277 107.508 620.46 108.775C621.735 110.042 623.191 110.676 625.012 110.676H666.064C670.069 110.676 673.984 109.861 677.534 108.232C681.084 106.604 684.27 104.432 686.909 101.717C689.549 99.0017 691.643 95.7439 693.19 92.0335C694.738 88.3231 695.557 84.3413 695.557 80.1784C695.557 75.2916 694.555 70.5857 692.462 66.3323C690.55 62.4409 687.911 59.0926 684.543 56.2872C686.181 55.2917 687.547 54.0247 688.73 52.4862ZM682.995 80.3594C682.995 82.7123 682.54 84.9747 681.63 87.0562C680.72 89.1376 679.536 91.038 677.989 92.5764C676.532 94.1149 674.712 95.3818 672.709 96.2868C670.707 97.1918 668.522 97.6443 666.246 97.6443H631.748V63.2554H666.246C668.522 63.2554 670.707 63.7079 672.709 64.6129C674.712 65.5178 676.532 66.6943 677.989 68.3232C679.445 69.8617 680.72 71.7622 681.63 73.8436C682.449 75.744 682.995 78.0064 682.995 80.3594ZM631.748 49.8619V15.292H666.246C668.522 15.292 670.707 15.7445 672.709 16.6494C674.712 17.5544 676.532 18.7309 678.08 20.3598C679.627 21.8982 680.811 23.7988 681.63 25.8802C682.449 27.9616 682.904 30.3146 682.904 32.6675C682.904 35.0204 682.449 37.2827 681.539 39.3642C680.628 41.4456 679.445 43.3461 677.898 44.8846C676.441 46.423 674.621 47.69 672.618 48.5949C670.616 49.4999 668.431 49.9524 666.155 49.9524H631.748V49.8619Z" fill="#231F20"/>
<path d="M753.54 27.8725C751.174 26.7866 748.625 25.8815 746.167 25.3386C743.618 24.7051 741.616 24.4336 740.068 24.4336C736.792 24.4336 733.515 24.9766 730.511 26.1531C727.871 27.1485 725.413 28.4155 723.047 30.0445C722.683 29.049 722.136 28.144 721.317 27.42C720.225 26.3341 718.768 25.8816 717.13 25.8816C715.4 25.8816 713.853 26.5151 712.488 27.8725C711.213 29.23 710.576 30.7684 710.576 32.5783V104.162C710.576 105.971 711.213 107.6 712.488 108.867C713.762 110.225 715.309 110.858 717.13 110.858C719.041 110.858 720.589 110.134 721.772 108.777C722.955 107.419 723.502 105.881 723.502 104.071V54.6596C723.502 52.3067 723.957 50.0442 724.867 47.9628C725.777 45.8814 726.961 44.0714 728.417 42.533C729.873 40.9945 731.603 39.8181 733.606 38.9131C735.608 38.0081 737.702 37.5557 739.977 37.5557C742.253 37.5557 744.165 37.9177 745.621 38.5512C747.169 39.2752 748.443 39.9992 749.535 40.8136L752.539 43.257C753.631 44.162 754.815 44.524 756.18 44.524C758.001 44.524 759.457 43.7999 760.731 42.533C761.915 41.1755 762.552 39.6371 762.552 37.8272C762.552 35.5648 761.642 33.5739 759.73 31.8544C758.092 30.4065 755.998 28.9585 753.54 27.8725Z" fill="#231F20"/>
<path d="M781.849 26.6016C780.12 26.6016 778.572 27.2351 777.207 28.5926C775.933 29.95 775.295 31.4884 775.295 33.2984V104.972C775.295 106.782 775.933 108.32 777.207 109.587C778.481 110.854 780.029 111.488 781.758 111.488C783.488 111.488 785.035 110.854 786.31 109.587C787.493 108.32 788.13 106.782 788.13 104.972V33.2984C788.13 31.4884 787.584 29.95 786.4 28.5926C785.308 27.2351 783.67 26.6016 781.849 26.6016Z" fill="#231F20"/>
<path d="M781.849 0.8125C779.665 0.8125 777.844 1.62701 776.388 3.16546C774.931 4.7039 774.203 6.60435 774.203 8.77628C774.203 11.0387 774.931 12.9391 776.388 14.387C777.844 15.9255 779.756 16.74 781.849 16.74C784.034 16.74 785.854 15.9255 787.311 14.387C788.767 12.8486 789.496 10.9482 789.496 8.77628C789.496 6.51385 788.767 4.61341 787.311 3.16546C785.854 1.62701 784.034 0.8125 781.849 0.8125Z" fill="#231F20"/>
<path d="M822.902 48.1464C825.451 45.522 828.454 43.4406 831.913 41.9021C835.372 40.3637 839.014 39.5492 842.746 39.5492C845.112 39.5492 847.388 39.9112 849.481 40.5447C851.575 41.1781 853.487 41.9926 855.125 42.7166C856.855 43.5311 858.311 44.3456 859.494 44.979C860.86 45.703 861.952 46.1554 862.862 46.1554C864.592 46.1554 866.139 45.522 867.414 44.3455C868.688 43.169 869.234 41.6306 869.234 39.7302C869.234 37.3772 868.051 35.2958 865.775 33.4859C863.682 31.8569 861.133 30.4995 858.22 29.4135C855.398 28.3275 852.485 27.5131 849.573 27.0606C846.66 26.5176 844.384 26.2461 842.837 26.2461C837.193 26.2461 831.823 27.4226 826.816 29.5945C821.81 31.857 817.44 34.8434 813.799 38.7347C810.158 42.5356 807.154 47.0605 804.97 52.2188C802.785 57.3771 801.693 62.8974 801.693 68.7797C801.693 74.5715 802.785 80.1824 804.97 85.3407C807.154 90.499 810.067 95.0239 813.799 98.8248C817.531 102.626 821.901 105.702 826.816 107.965C831.823 110.227 837.193 111.313 842.837 111.313C844.384 111.313 846.66 111.042 849.573 110.589C852.485 110.137 855.398 109.322 858.311 108.236C861.224 107.15 863.773 105.793 865.866 104.164C868.142 102.445 869.325 100.363 869.325 97.9198C869.325 96.0193 868.688 94.3903 867.505 93.2139C866.23 92.0374 864.774 91.4039 862.953 91.4039C862.043 91.4039 860.951 91.766 859.585 92.5804C858.402 93.2139 856.946 94.0284 855.216 94.8429C853.578 95.6573 851.666 96.3813 849.573 97.0148C847.479 97.6483 845.294 98.0103 842.837 98.0103C838.922 98.0103 835.281 97.2863 831.913 95.7478C828.545 94.2094 825.542 92.1279 822.902 89.5035C820.353 86.8791 818.26 83.7118 816.803 80.1824C815.347 76.653 814.618 72.852 814.618 68.7797C814.618 64.8883 815.347 61.0874 816.894 57.4676C818.351 53.9382 820.444 50.7708 822.902 48.1464Z" fill="#231F20"/>
<path d="M916.204 60.2697L942.237 37.7359C943.876 36.3785 944.695 34.7495 944.695 32.7586C944.695 30.9486 944.057 29.4101 942.783 28.0527C941.509 26.6952 939.961 26.0618 938.141 26.0618C937.413 26.0618 936.684 26.2428 935.956 26.5143C935.319 26.7858 934.682 27.2383 934.045 27.6908L895.632 60.7222V8.86735C895.632 7.05741 895.086 5.51895 893.902 4.1615C892.719 2.80404 891.171 2.08008 889.26 2.08008C887.53 2.08008 885.983 2.71357 884.618 4.07102C883.343 5.42848 882.706 6.96694 882.706 8.77688V104.432C882.706 106.242 883.343 107.781 884.618 109.047C885.892 110.314 887.439 110.948 889.169 110.948C890.898 110.948 892.446 110.314 893.72 109.047C894.904 107.781 895.541 106.242 895.541 104.432V77.826L906.373 68.5954L937.14 108.414C938.414 110.133 940.143 110.948 942.146 110.948C943.875 110.948 945.423 110.314 946.697 109.047C947.881 107.781 948.518 106.242 948.518 104.432C948.518 102.984 948.063 101.627 947.152 100.269L916.204 60.2697Z" fill="#231F20"/>
<path d="M1008.32 73.7524C1006.14 70.404 1003.32 67.7796 999.948 66.0602C996.671 64.3407 993.03 63.0738 989.298 62.2593C985.657 61.5354 982.198 60.7209 979.012 59.816C975.917 58.911 973.368 57.7345 971.275 56.1961C969.363 54.8386 968.453 52.5762 968.453 49.4088C968.453 47.6894 968.908 46.2414 969.818 44.9744C970.728 43.617 971.912 42.4405 973.368 41.5355C974.825 40.6305 976.372 39.9066 978.102 39.4541C979.831 39.0017 981.378 38.8206 982.835 38.8206C984.018 38.8206 985.293 39.0016 986.84 39.2731C988.388 39.5446 989.844 39.9971 991.3 40.4496C992.757 40.9926 994.122 41.5355 995.305 42.35C996.489 43.074 997.49 43.8885 998.218 44.884C999.584 46.6939 1001.31 47.5989 1003.32 47.5989C1005.05 47.5989 1006.59 46.9653 1007.87 45.6983C1009.14 44.4314 1009.78 42.893 1009.78 41.083C1009.78 38.5491 1008.6 36.1962 1006.41 34.2053C1004.32 32.3048 1001.77 30.7663 998.856 29.4089C996.034 28.1419 993.03 27.1465 990.026 26.513C987.022 25.8795 984.564 25.5176 982.835 25.5176C979.558 25.5176 976.19 26.0606 972.913 27.237C969.636 28.323 966.723 29.9519 964.175 32.1238C961.626 34.2052 959.532 36.8296 957.985 39.816C956.437 42.8929 955.618 46.3318 955.618 50.1327C955.618 55.653 956.71 59.9065 958.986 62.9834C961.171 65.9698 963.992 68.2322 967.36 69.8611C970.637 71.3996 974.187 72.5759 978.01 73.2999C981.651 74.0239 985.111 74.8384 988.296 75.8339C991.391 76.7389 993.94 78.1868 995.943 79.9062C997.854 81.6257 998.764 84.2501 998.764 87.7794C998.764 89.4084 998.218 90.8564 997.217 92.0329C996.125 93.2998 994.668 94.2953 993.03 95.1098C991.391 95.9243 989.571 96.4672 987.659 96.8291C985.93 97.1911 984.382 97.3722 983.108 97.3722C981.561 97.3722 980.013 97.1007 978.466 96.6482C976.827 96.1957 975.189 95.4717 973.641 94.5667C972.094 93.6618 970.637 92.5758 969.363 91.3993C968.089 90.2229 966.996 88.8655 966.177 87.508C965.631 86.6031 964.812 85.7885 963.901 85.0645C962.9 84.4311 961.717 84.0691 960.443 84.0691C958.713 84.0691 957.166 84.7931 955.891 86.0601C954.708 87.4175 954.071 88.8655 954.071 90.5849C954.071 91.3994 954.253 92.3948 954.799 93.5713C955.891 96.0147 957.53 98.2771 959.805 100.268C961.99 102.259 964.448 104.069 967.087 105.607C969.727 107.146 972.458 108.322 975.371 109.227C978.102 110.042 980.65 110.494 983.017 110.494C983.29 110.494 983.654 110.494 983.927 110.494C986.749 110.494 989.662 110.042 992.666 109.227C996.034 108.232 999.129 106.784 1001.95 104.883C1004.77 102.983 1007.14 100.54 1008.96 97.7341C1010.78 94.8382 1011.78 91.4898 1011.78 87.689C1011.69 81.8067 1010.51 77.1008 1008.32 73.7524Z" fill="#231F20"/>
<defs>
<linearGradient id="paint0_linear_5789_6170" x1="94.2449" y1="11.3235" x2="19.4201" y2="121.105" gradientUnits="userSpaceOnUse">
<stop offset="0.1359" stop-color="#DB6F02"/>
<stop offset="1" stop-color="#FFB825"/>
</linearGradient>
<linearGradient id="paint1_linear_5789_6170" x1="108.71" y1="21.1848" x2="33.8851" y2="130.966" gradientUnits="userSpaceOnUse">
<stop offset="0.1359" stop-color="#DB6F02"/>
<stop offset="1" stop-color="#FFB825"/>
</linearGradient>
<linearGradient id="paint2_linear_5789_6170" x1="118.262" y1="27.689" x2="43.4376" y2="137.47" gradientUnits="userSpaceOnUse">
<stop offset="0.1359" stop-color="#DB6F02"/>
<stop offset="1" stop-color="#FFB825"/>
</linearGradient>
<linearGradient id="paint3_linear_5789_6170" x1="126.413" y1="33.2476" x2="51.5884" y2="143.029" gradientUnits="userSpaceOnUse">
<stop offset="0.1359" stop-color="#DB6F02"/>
<stop offset="1" stop-color="#FFB825"/>
</linearGradient>
<linearGradient id="paint4_linear_5789_6170" x1="78.8719" y1="0.844416" x2="4.047" y2="110.625" gradientUnits="userSpaceOnUse">
<stop offset="0.1359" stop-color="#DB6F02"/>
<stop offset="1" stop-color="#FFB825"/>
</linearGradient>
<linearGradient id="paint5_linear_5789_6170" x1="87.4541" y1="6.69628" x2="12.6293" y2="116.477" gradientUnits="userSpaceOnUse">
<stop offset="0.1359" stop-color="#DB6F02"/>
<stop offset="1" stop-color="#FFB825"/>
</linearGradient>
<linearGradient id="paint6_linear_5789_6170" x1="132.5" y1="37.3956" x2="57.6749" y2="147.177" gradientUnits="userSpaceOnUse">
<stop offset="0.1359" stop-color="#DB6F02"/>
<stop offset="1" stop-color="#FFB825"/>
</linearGradient>
<linearGradient id="paint7_linear_5789_6170" x1="141.95" y1="43.8382" x2="67.1247" y2="153.619" gradientUnits="userSpaceOnUse">
<stop offset="0.1359" stop-color="#DB6F02"/>
<stop offset="1" stop-color="#FFB825"/>
</linearGradient>
</defs>
</svg>
