<svg id="Layer_1" data-name="Layer 1" xmlns="http://www.w3.org/2000/svg" viewBox="0 0 512 512"><circle cx="285.5" cy="226.5" r="149" fill="#eee9e5"/><path d="M354.63037,243.626,198.4917,206.16211a7.97758,7.97758,0,0,0-1.86694-.21814V86.10553a8.60149,8.60149,0,0,0-10.6308-8.3587L13.831,119.54364A10.2489,10.2489,0,0,0,6,129.50323V495.751A10.249,10.249,0,0,0,16.2489,506H195.681a8.05561,8.05561,0,0,0,.944.06055H352.76367a8.00008,8.00008,0,0,0,8-8V251.40527A8.00015,8.00015,0,0,0,354.63037,243.626Zm-9.8667,246.43457H204.625V224.08789l140.13867,33.625Z" fill="#433bce"/><path d="M249.29346,439.07227a8.00009,8.00009,0,0,0,8-8V304.1543a8,8,0,1,0-16,0v126.918A8.00009,8.00009,0,0,0,249.29346,439.07227Z" fill="#433bce"/><path d="M300.09473,439.07227a8.00009,8.00009,0,0,0,8-8V304.1543a8,8,0,1,0-16,0v126.918A8.00009,8.00009,0,0,0,300.09473,439.07227Z" fill="#433bce"/><path d="M161.36475,182.335H45.66748a8,8,0,1,1,0-16H161.36475a8,8,0,0,1,0,16Z" fill="#fff"/><path d="M161.36475,267.91406H45.66748a8,8,0,0,1,0-16H161.36475a8,8,0,1,1,0,16Z" fill="#fff"/><path d="M161.36475,353.49316H45.66748a8,8,0,0,1,0-16H161.36475a8,8,0,0,1,0,16Z" fill="#fff"/><path d="M161.36475,439.07227H45.66748a8,8,0,0,1,0-16H161.36475a8,8,0,0,1,0,16Z" fill="#fff"/><path d="M502.2312,161.439H492.21466a3.74426,3.74426,0,0,0-2.81946,1.291L438.145,116.16852a25.44107,25.44107,0,0,0,14.23437-21.51795,25.11205,25.11205,0,0,0-15.14392-24.35046,6.55342,6.55342,0,0,1-3.84124-6.064v-.51733h5.76837a9.114,9.114,0,0,0,8.99188-7.627l6.47809-39.17456a9.11394,9.11394,0,0,0-8.99182-10.6009H408.64514a9.11393,9.11393,0,0,0-8.99182,10.6009l6.47809,39.17456a9.114,9.114,0,0,0,8.99188,7.627h5.76856v.51733A19.0508,19.0508,0,0,0,432.2373,81.7597a12.6984,12.6984,0,0,1,7.65278,12.31659,12.83281,12.83281,0,0,1-12.13654,12.1366c-.19135.00855-.37952-.00305-.56964-.00275l-.04083-.037-.04041.03668a12.73139,12.73139,0,0,1-12.72089-12.74439,6.25122,6.25122,0,1,0-12.50244,0,25.04365,25.04365,0,0,0,7.817,18.272,25.32951,25.32951,0,0,0,6.40918,4.4635L364.89062,162.73a3.74379,3.74379,0,0,0-2.81939-1.291H352.05469a3.76872,3.76872,0,0,0-3.7688,3.7688v53.077a3.7687,3.7687,0,0,0,3.7688,3.76868h10.01654a3.7687,3.7687,0,0,0,3.7688-3.76868v-1.97742H488.44586v1.97742a3.7687,3.7687,0,0,0,3.7688,3.76868H502.2312A3.7687,3.7687,0,0,0,506,218.28479v-53.077A3.76872,3.76872,0,0,0,502.2312,161.439Zm-75.10693-42.70922q.59967,0,1.204-.028c.27954-.01288.55652-.0365.8338-.05865l53.4306,48.542H371.69318l53.42822-48.53955C425.78467,118.6972,426.45178,118.72974,427.12427,118.72974Z" fill="#ec9112"/></svg>