<svg width="60" height="60" viewBox="0 0 60 60" fill="none" xmlns="http://www.w3.org/2000/svg">
<path d="M21.0173 60.0002C32.6248 60.0002 42.0346 50.5903 42.0346 38.9828C42.0346 27.3753 32.6248 17.9655 21.0173 17.9655C9.40977 17.9655 0 27.3753 0 38.9828C0 50.5903 9.40977 60.0002 21.0173 60.0002Z" fill="#433BCE"/>
<path d="M21.0173 58.4341C18.0238 58.4341 15.2584 56.3296 13.2304 52.5082C11.3047 48.8795 10.2442 44.0761 10.2442 38.9828C10.2442 33.8895 11.3047 29.0862 13.2304 25.4575C15.2584 21.6361 18.0238 19.5315 21.0173 19.5315C24.0107 19.5315 26.7763 21.6361 28.8043 25.4575C30.7299 29.0862 31.7905 33.8895 31.7905 38.9828C31.7905 44.0761 30.7299 48.8795 28.8043 52.5082C26.7763 56.3296 24.0107 58.4341 21.0173 58.4341ZM21.0173 21.4515C18.7684 21.4515 16.6053 23.1939 14.9263 26.3575C13.1452 29.714 12.1642 34.1977 12.1642 38.9828C12.1642 43.7679 13.1452 48.2516 14.9263 51.6082C16.6053 54.7717 18.7684 56.5141 21.0173 56.5141C23.2661 56.5141 25.4294 54.7717 27.1082 51.6082C28.8895 48.2516 29.8705 43.7679 29.8705 38.9828C29.8705 34.1977 28.8895 29.714 27.1082 26.3575C25.4294 23.1939 23.2661 21.4515 21.0173 21.4515Z" fill="white"/>
<path d="M37.5853 32.0405H4.44934C4.19473 32.0405 3.95056 31.9395 3.77052 31.7594C3.59048 31.5794 3.48933 31.3352 3.48933 31.0805C3.48933 30.826 3.59048 30.5818 3.77052 30.4018C3.95056 30.2217 4.19473 30.1205 4.44934 30.1205H37.5853C37.8399 30.1205 38.0841 30.2217 38.2641 30.4018C38.4441 30.5818 38.5453 30.826 38.5453 31.0805C38.5453 31.3352 38.4441 31.5794 38.2641 31.7594C38.0841 31.9395 37.8399 32.0405 37.5853 32.0405Z" fill="white"/>
<path d="M37.5853 47.8451H4.44934C4.19473 47.8451 3.95056 47.7439 3.77052 47.5638C3.59048 47.3838 3.48933 47.1396 3.48933 46.8851C3.48933 46.6304 3.59048 46.3862 3.77052 46.2062C3.95056 46.0261 4.19473 45.925 4.44934 45.925H37.5853C37.8399 45.925 38.0841 46.0261 38.2641 46.2062C38.4441 46.3862 38.5453 46.6304 38.5453 46.8851C38.5453 47.1396 38.4441 47.3838 38.2641 47.5638C38.0841 47.7439 37.8399 47.8451 37.5853 47.8451Z" fill="white"/>
<path d="M56.8968 3.10323V3.10322C55.9129 2.11937 54.745 1.33895 53.4595 0.806498C52.1741 0.274049 50.7964 0 49.405 0C48.0136 0 46.6358 0.274049 45.3504 0.806498C44.0649 1.33895 42.897 2.11937 41.9131 3.10322V3.10323C40.1318 4.88459 39.0434 7.24239 38.8434 9.75366C38.6433 12.2649 39.3446 14.7653 40.8215 16.8063L47.7048 26.3186C47.8993 26.5874 48.1549 26.8063 48.4505 26.9572C48.7459 27.1082 49.073 27.1869 49.405 27.1869C49.7368 27.1869 50.064 27.1082 50.3594 26.9572C50.655 26.8063 50.9106 26.5874 51.1051 26.3186L57.9885 16.8063C59.4653 14.7653 60.1666 12.265 59.9665 9.75366C59.7665 7.2424 58.6781 4.88459 56.8968 3.10323ZM49.405 16.7674C48.1728 16.7674 46.9682 16.4021 45.9438 15.7175C44.9192 15.0329 44.1207 14.0599 43.6491 12.9215C43.1777 11.7832 43.0543 10.5305 43.2947 9.32203C43.535 8.11353 44.1284 7.00344 44.9996 6.13216C45.871 5.26088 46.9811 4.66753 48.1895 4.42715C49.398 4.18676 50.6507 4.31013 51.7891 4.78166C52.9274 5.2532 53.9004 6.05172 54.585 7.07623C55.2696 8.10076 55.6349 9.30526 55.6349 10.5374C55.6349 12.1897 54.9786 13.7743 53.8102 14.9427C52.6418 16.1111 51.0572 16.7674 49.405 16.7674Z" fill="#EC9112"/>
</svg>
